REM MD5 083d47463135eee1deb12bddaa16a73b
FILE "Rascal (France) (Demo).bin" BINARY
  TRACK 01 MODE2/2352
    INDEX 01 00:00:00
  TRACK 02 AUDIO
    INDEX 00 02:57:29
    INDEX 01 02:59:29
  TRACK 03 AUDIO
    INDEX 00 03:09:44
    INDEX 01 03:11:44
  TRACK 04 AUDIO
    INDEX 00 03:22:42
    INDEX 01 03:24:42
REM LEADOUT 06:34:59
